<svg width="61" height="58" viewBox="0 0 61 58" fill="none" xmlns="http://www.w3.org/2000/svg">
<path d="M10.1168 12.4891L11.2608 13.6331C12.1186 14.491 13.5095 14.491 14.3673 13.6331C15.2251 12.7753 15.2251 11.3845 14.3673 10.5267L13.2232 9.38262C12.3654 8.5248 10.9746 8.5248 10.1168 9.38262C9.25893 10.2404 9.25893 11.6312 10.1168 12.4891ZM28.5683 3.11805V5.66042C28.5683 6.8937 29.5681 7.89347 30.8013 7.89347C32.0346 7.89347 33.0344 6.8937 33.0344 5.66042V3.11804C33.0344 1.88476 32.0346 0.884995 30.8013 0.884995C29.5681 0.884995 28.5683 1.88477 28.5683 3.11805ZM6.39456 27.8341H3.72507C2.49179 27.8341 1.49202 28.8339 1.49202 30.0672C1.49202 31.3005 2.49179 32.3003 3.72507 32.3003H6.39456C7.62784 32.3003 8.62761 31.3005 8.62761 30.0672C8.62761 28.8339 7.62784 27.8341 6.39456 27.8341ZM40.1435 42.7687C41.8889 41.4963 43.3351 39.9109 44.4834 38.008C45.9178 35.631 46.6361 33.009 46.6361 30.1308C46.6361 25.7719 45.0998 22.0643 42.0156 18.9801C38.9313 15.8958 35.2237 14.3596 30.8649 14.3596C26.5061 14.3596 22.7985 15.8958 19.7142 18.9801C16.63 22.0643 15.0937 25.7719 15.0937 30.1308C15.0937 33.0118 15.7922 35.6358 17.1861 38.0135C18.2996 39.913 19.751 41.497 21.5434 42.7693C22.5329 43.4717 23.2293 44.5925 23.2293 45.862V52.207C23.2293 54.6923 25.244 56.707 27.7293 56.707H34.0005C36.4858 56.707 38.5005 54.6923 38.5005 52.207V45.8327C38.5005 44.5818 39.1769 43.4734 40.1435 42.7687ZM55.2081 32.3003H57.8776C59.1109 32.3003 60.1107 31.3005 60.1107 30.0672C60.1107 28.8339 59.1109 27.8341 57.8776 27.8341H55.2081C53.9748 27.8341 52.9751 28.8339 52.9751 30.0672C52.9751 31.3005 53.9748 32.3003 55.2081 32.3003ZM50.2946 13.6009L51.4534 12.4718C52.3233 11.6242 52.3324 10.229 51.4735 9.37024C50.6226 8.51925 49.2428 8.51925 48.3918 9.37024L47.2478 10.5142C46.3908 11.3713 46.4026 12.7644 47.2741 13.6068C48.117 14.4217 49.4549 14.419 50.2946 13.6009Z" fill="#9DA2C8" stroke="#6668AA"/>
</svg>
