<svg width="57" height="50" viewBox="0 0 57 50" fill="none" xmlns="http://www.w3.org/2000/svg">
<mask id="path-1-inside-1_101_407" fill="white">
<path d="M29.7893 0.891846L4.74207 7.80216C4.74207 7.80216 0.141754 7.67278 0.141754 12.559C0.141754 14.5756 1.03613 16.0784 1.03613 16.0784L20.118 47.9928C21.9424 50.899 25.8171 49.0793 25.8171 49.0793L55.0774 34.8247L53.9824 33.7137C53.7246 32.3797 53.5746 29.9093 55.3858 28.07C55.4261 28.0287 55.4336 27.9725 55.4552 27.9209L56.3918 27.545L29.7893 0.891846ZM16.5714 19.5537L12.0564 12.4512L30.5664 6.9781L35.688 12.5534L16.5714 19.5537V19.5537ZM53.028 31.024C52.9671 31.4553 52.9361 31.8753 52.9427 32.269L33.7343 41.3862L53.0111 33.2056C53.0299 33.3547 53.0468 33.5047 53.0702 33.6397L28.4468 45.5328L53.2643 34.5265L53.2793 34.5847L25.8171 47.7218C25.8039 47.7303 24.5505 48.3968 23.2943 48.3968C22.053 48.3968 21.2796 47.7593 20.9271 46.4487C20.0205 43.0812 25.1711 41.1725 25.2489 41.1443L53.733 28.8209C53.5286 29.1959 53.3871 29.5775 53.2689 29.9581L35.1874 38.4697L53.028 31.024"/>
</mask>
<path d="M29.7893 0.891846L4.74207 7.80216C4.74207 7.80216 0.141754 7.67278 0.141754 12.559C0.141754 14.5756 1.03613 16.0784 1.03613 16.0784L20.118 47.9928C21.9424 50.899 25.8171 49.0793 25.8171 49.0793L55.0774 34.8247L53.9824 33.7137C53.7246 32.3797 53.5746 29.9093 55.3858 28.07C55.4261 28.0287 55.4336 27.9725 55.4552 27.9209L56.3918 27.545L29.7893 0.891846ZM16.5714 19.5537L12.0564 12.4512L30.5664 6.9781L35.688 12.5534L16.5714 19.5537V19.5537ZM53.028 31.024C52.9671 31.4553 52.9361 31.8753 52.9427 32.269L33.7343 41.3862L53.0111 33.2056C53.0299 33.3547 53.0468 33.5047 53.0702 33.6397L28.4468 45.5328L53.2643 34.5265L53.2793 34.5847L25.8171 47.7218C25.8039 47.7303 24.5505 48.3968 23.2943 48.3968C22.053 48.3968 21.2796 47.7593 20.9271 46.4487C20.0205 43.0812 25.1711 41.1725 25.2489 41.1443L53.733 28.8209C53.5286 29.1959 53.3871 29.5775 53.2689 29.9581L35.1874 38.4697L53.028 31.024" fill="#9DA2C8"/>
<path d="M29.7893 0.891846L30.497 0.185411L30.0852 -0.227172L29.5233 -0.0721396L29.7893 0.891846ZM4.74207 7.80216L4.71395 8.80176L4.86366 8.80597L5.00802 8.76614L4.74207 7.80216ZM1.03613 16.0784L0.176795 16.5898L0.177845 16.5916L1.03613 16.0784ZM20.118 47.9928L19.2597 48.506L19.2653 48.5153L19.2711 48.5245L20.118 47.9928ZM25.8171 49.0793L26.2422 49.9845L26.2486 49.9815L26.255 49.9783L25.8171 49.0793ZM55.0774 34.8247L55.5153 35.7237L56.7667 35.114L55.7896 34.1227L55.0774 34.8247ZM53.9824 33.7137L53.0005 33.9035L53.0579 34.2003L53.2702 34.4157L53.9824 33.7137ZM55.3858 28.07L56.0984 28.7716L56.101 28.7689L55.3858 28.07ZM55.4552 27.9209L55.0827 26.9929L54.6941 27.1488L54.5326 27.5351L55.4552 27.9209ZM56.3918 27.545L56.7643 28.473L58.1684 27.9094L57.0995 26.8385L56.3918 27.545ZM12.0564 12.4512L11.7729 11.4923L10.501 11.8684L11.2125 12.9877L12.0564 12.4512ZM30.5664 6.9781L31.3029 6.30159L30.881 5.8423L30.2829 6.01914L30.5664 6.9781ZM35.688 12.5534L36.0319 13.4924L37.4361 12.9782L36.4244 11.8769L35.688 12.5534ZM52.9427 32.269L53.3715 33.1724L53.9533 32.8963L53.9426 32.2524L52.9427 32.269ZM33.7343 41.3862L33.3055 40.4828L34.1249 42.3068L33.7343 41.3862ZM53.0111 33.2056L54.0033 33.0808L53.8382 31.7683L52.6205 32.2851L53.0111 33.2056ZM53.0702 33.6397L53.5051 34.5401L54.1845 34.212L54.0555 33.4686L53.0702 33.6397ZM28.4468 45.5328L28.0118 44.6323L28.8522 46.4469L28.4468 45.5328ZM53.2643 34.5265L54.2325 34.2767L53.9377 33.134L52.8588 33.6124L53.2643 34.5265ZM53.2793 34.5847L53.7108 35.4868L54.4532 35.1316L54.2475 34.3348L53.2793 34.5847ZM25.8171 47.7218L25.3855 46.8198L25.329 46.8468L25.2763 46.8807L25.8171 47.7218ZM20.9271 46.4487L21.8927 46.189L21.8927 46.1888L20.9271 46.4487ZM25.2489 41.1443L25.5889 42.0848L25.6178 42.0743L25.646 42.0621L25.2489 41.1443ZM53.733 28.8209L54.6111 29.2995L56.0003 26.7504L53.3359 27.9031L53.733 28.8209ZM53.2689 29.9581L53.6948 30.8629L54.0934 30.6752L54.224 30.2545L53.2689 29.9581ZM35.1874 38.4697L34.7615 37.5649L35.5725 39.3925L35.1874 38.4697ZM29.5233 -0.0721396L4.47611 6.83817L5.00802 8.76614L30.0552 1.85583L29.5233 -0.0721396ZM4.74207 7.80216C4.77018 6.80255 4.76964 6.80254 4.76909 6.80252C4.76888 6.80252 4.76831 6.8025 4.76789 6.80249C4.76705 6.80247 4.76614 6.80245 4.76516 6.80242C4.7632 6.80238 4.76095 6.80233 4.75842 6.80228C4.75336 6.80218 4.74716 6.80208 4.73986 6.802C4.72527 6.80184 4.70626 6.80176 4.68312 6.80193C4.63688 6.80226 4.57396 6.80359 4.49671 6.80728C4.34256 6.81464 4.12923 6.83149 3.87599 6.8692C3.3743 6.9439 2.68954 7.10435 1.99259 7.45488C1.28996 7.80827 0.564125 8.36102 0.0178733 9.21597C-0.530299 10.0739 -0.858246 11.1748 -0.858246 12.559H1.14175C1.14175 11.5001 1.38885 10.7848 1.70323 10.2928C2.01954 9.79774 2.44378 9.46667 2.89123 9.24162C3.34436 9.01372 3.80968 8.90112 4.17055 8.84739C4.34858 8.82088 4.49465 8.80966 4.59209 8.80501C4.64062 8.80269 4.67654 8.80203 4.69768 8.80187C4.70824 8.8018 4.71506 8.80185 4.71788 8.80188C4.71929 8.80189 4.71968 8.8019 4.71904 8.80189C4.71872 8.80188 4.71814 8.80187 4.71729 8.80185C4.71687 8.80184 4.71638 8.80183 4.71583 8.80181C4.71555 8.80181 4.71508 8.80179 4.71494 8.80179C4.71446 8.80178 4.71395 8.80176 4.74207 7.80216ZM-0.858246 12.559C-0.858246 13.7118 -0.603422 14.7076 -0.35309 15.4105C-0.227254 15.7638 -0.100517 16.0487 -0.00289588 16.2495C0.0459953 16.35 0.0878248 16.4299 0.118928 16.4871C0.134488 16.5158 0.14739 16.5388 0.157178 16.556C0.162074 16.5646 0.166194 16.5717 0.169481 16.5774C0.171125 16.5802 0.172562 16.5827 0.173783 16.5847C0.174394 16.5858 0.174951 16.5867 0.175454 16.5876C0.175705 16.588 0.175943 16.5884 0.176167 16.5888C0.176278 16.589 0.176436 16.5892 0.176492 16.5893C0.176646 16.5896 0.176797 16.5898 1.03613 16.0784C1.89546 15.567 1.89561 15.5672 1.89575 15.5675C1.89579 15.5675 1.89593 15.5678 1.89601 15.5679C1.89618 15.5682 1.89634 15.5685 1.89648 15.5687C1.89676 15.5692 1.897 15.5696 1.89718 15.5699C1.89754 15.5705 1.89769 15.5708 1.89765 15.5707C1.89755 15.5705 1.89665 15.569 1.89499 15.5661C1.89168 15.5602 1.88537 15.549 1.87647 15.5327C1.85866 15.4999 1.83062 15.4466 1.79566 15.3747C1.72559 15.2306 1.62873 15.0139 1.53097 14.7394C1.33412 14.1867 1.14175 13.4228 1.14175 12.559H-0.858246ZM0.177845 16.5916L19.2597 48.506L20.9763 47.4796L1.89441 15.5652L0.177845 16.5916ZM19.2711 48.5245C20.4566 50.4131 22.3291 50.7301 23.728 50.623C24.4264 50.5695 25.047 50.4116 25.4875 50.2708C25.7098 50.1998 25.8915 50.1314 26.0204 50.0795C26.085 50.0535 26.1368 50.0315 26.1741 50.0151C26.1928 50.007 26.208 50.0002 26.2194 49.995C26.225 49.9924 26.2298 49.9902 26.2336 49.9885C26.2355 49.9876 26.2372 49.9868 26.2386 49.9862C26.2393 49.9858 26.24 49.9855 26.2406 49.9852C26.2409 49.9851 26.2413 49.9849 26.2414 49.9848C26.2418 49.9847 26.2422 49.9845 25.8171 49.0793C25.392 48.1742 25.3923 48.174 25.3926 48.1739C25.3927 48.1738 25.393 48.1737 25.3932 48.1736C25.3936 48.1735 25.3939 48.1733 25.3941 48.1732C25.3946 48.173 25.3948 48.1729 25.3949 48.1728C25.3949 48.1728 25.3941 48.1732 25.3924 48.174C25.3891 48.1755 25.3822 48.1786 25.3721 48.183C25.3518 48.1919 25.3185 48.2061 25.2736 48.2242C25.1835 48.2604 25.0482 48.3116 24.8788 48.3657C24.5358 48.4753 24.0736 48.5907 23.5753 48.6288C22.5808 48.705 21.6038 48.4787 20.965 47.4611L19.2711 48.5245ZM26.255 49.9783L55.5153 35.7237L54.6394 33.9257L25.3791 48.1804L26.255 49.9783ZM55.7896 34.1227L54.6946 33.0117L53.2702 34.4157L54.3652 35.5266L55.7896 34.1227ZM54.9642 33.524C54.7236 32.2791 54.6461 30.2464 56.0983 28.7716L54.6733 27.3683C52.503 29.5723 52.7255 32.4802 53.0005 33.9035L54.9642 33.524ZM56.101 28.7689C56.2617 28.6044 56.3336 28.4313 56.364 28.35C56.3719 28.329 56.3781 28.3109 56.3821 28.2989C56.3842 28.2928 56.386 28.2873 56.3873 28.2835C56.3889 28.2787 56.3893 28.2773 56.3901 28.2748C56.3936 28.2645 56.3881 28.2821 56.3778 28.3067L54.5326 27.5351C54.5115 27.5855 54.497 27.6295 54.4917 27.6455C54.483 27.6719 54.4872 27.659 54.491 27.6486C54.5023 27.6186 54.5502 27.4943 54.6706 27.371L56.101 28.7689ZM55.8277 28.8489L56.7643 28.473L56.0192 26.6169L55.0827 26.9929L55.8277 28.8489ZM57.0995 26.8385L30.497 0.185411L29.0815 1.59828L55.684 28.2514L57.0995 26.8385ZM17.4154 19.0172L12.9004 11.9147L11.2125 12.9877L15.7275 20.0902L17.4154 19.0172ZM12.34 13.4102L30.85 7.93705L30.2829 6.01914L11.7729 11.4923L12.34 13.4102ZM29.83 7.6546L34.9516 13.2299L36.4244 11.8769L31.3029 6.30159L29.83 7.6546ZM35.3441 11.6144L16.2276 18.6147L16.9153 20.4927L36.0319 13.4924L35.3441 11.6144ZM52.0378 30.8841C51.9711 31.3563 51.9352 31.8296 51.9428 32.2857L53.9426 32.2524C53.937 31.921 53.963 31.5543 54.0182 31.1639L52.0378 30.8841ZM52.5139 31.3656L33.3055 40.4828L34.1631 42.2896L53.3715 33.1724L52.5139 31.3656ZM34.1249 42.3068L53.4018 34.1261L52.6205 32.2851L33.3436 40.4657L34.1249 42.3068ZM52.0189 33.3304C52.0351 33.459 52.0562 33.6455 52.0849 33.8107L54.0555 33.4686C54.0373 33.3638 54.0246 33.2503 54.0033 33.0808L52.0189 33.3304ZM52.6353 32.7392L28.0118 44.6323L28.8817 46.4333L53.5051 34.5401L52.6353 32.7392ZM28.8522 46.4469L53.6697 35.4407L52.8588 33.6124L28.0413 44.6186L28.8522 46.4469ZM52.296 34.7764L52.311 34.8345L54.2475 34.3348L54.2325 34.2767L52.296 34.7764ZM52.8477 33.6826L25.3855 46.8198L26.2486 48.6239L53.7108 35.4868L52.8477 33.6826ZM25.2763 46.8807C25.3313 46.8453 25.3711 46.8278 25.3084 46.8592C25.2803 46.8733 25.2359 46.895 25.1775 46.9217C25.0602 46.9755 24.8906 47.0479 24.6871 47.1202C24.2673 47.2693 23.7616 47.3968 23.2943 47.3968V49.3968C24.0831 49.3968 24.8323 49.1911 25.3566 49.0048C25.6251 48.9094 25.8498 48.8136 26.0105 48.74C26.0911 48.7031 26.1566 48.6713 26.2044 48.6473C26.2177 48.6406 26.2996 48.6005 26.3578 48.563L25.2763 46.8807ZM23.2943 47.3968C22.8508 47.3968 22.5884 47.2867 22.413 47.1422C22.2282 46.9901 22.0333 46.7116 21.8927 46.189L19.9614 46.7084C20.1733 47.4964 20.5415 48.192 21.1418 48.6863C21.7515 49.1883 22.4965 49.3968 23.2943 49.3968V47.3968ZM21.8927 46.1888C21.6071 45.128 22.218 44.1826 23.3247 43.3399C23.8488 42.9407 24.4108 42.6268 24.8541 42.4091C25.2958 42.1922 25.598 42.0815 25.5889 42.0848L24.909 40.2039C24.8358 40.2304 23.417 40.7557 22.113 41.7487C20.8516 42.7093 19.3405 44.402 19.9614 46.7087L21.8927 46.1888ZM25.646 42.0621L54.1301 29.7387L53.3359 27.9031L24.8519 40.2266L25.646 42.0621ZM52.8549 28.3424C52.6072 28.797 52.4426 29.2469 52.3139 29.6617L54.224 30.2545C54.3315 29.908 54.4501 29.5948 54.6111 29.2995L52.8549 28.3424ZM52.843 29.0533L34.7615 37.5649L35.6133 39.3744L53.6948 30.8629L52.843 29.0533ZM35.5725 39.3925L53.4131 31.9469L52.6429 30.1012L34.8022 37.5468L35.5725 39.3925Z" fill="#6668AA" mask="url(#path-1-inside-1_101_407)"/>
</svg>
