<svg width="9" height="13" viewBox="0 0 9 13" fill="none" xmlns="http://www.w3.org/2000/svg">
<path d="M4.02202 12.9395H5.19532L5.20526 11.7911C7.35796 11.627 8.60583 10.4835 8.6108 8.75838C8.60583 7.06307 7.32813 6.16321 5.55824 5.76549L5.26492 5.69588L5.28481 3.21009C5.94603 3.36421 6.34873 3.78679 6.40839 4.41321H8.4716C8.44674 2.76762 7.21876 1.58935 5.30469 1.38054L5.31464 0.212219H4.14134L4.1314 1.3706C2.18751 1.55952 0.815346 2.73282 0.82529 4.42813C0.820318 5.92955 1.87927 6.78963 3.59944 7.20228L4.07671 7.3216L4.05185 9.95157C3.24148 9.79745 2.69461 9.30029 2.63992 8.47003H0.556824C0.60654 10.4786 1.92401 11.6021 4.03197 11.7861L4.02202 12.9395ZM5.22515 9.95157L5.24503 7.62983C6.01563 7.87344 6.43324 8.18665 6.43822 8.75341C6.43324 9.35498 5.97586 9.80242 5.22515 9.95157ZM4.09162 5.39262C3.47018 5.17884 3.02273 4.85569 3.03268 4.28395C3.03268 3.75199 3.41052 3.33935 4.11151 3.19517L4.09162 5.39262Z" fill="#F5453D"/>
</svg>
