<svg width="80" height="19" viewBox="0 0 80 19" fill="none" xmlns="http://www.w3.org/2000/svg">
<path d="M74.469 17.7029C74.469 18.8584 72.6878 16.5474 71.5004 16.5474C70.3129 16.5474 67.938 18.8584 67.938 17.7029C70.3129 15.3918 70.3381 10.7698 71.2629 10.7698C72.1877 10.7698 72.6878 15.3918 74.469 17.7029Z" fill="#F5443B"/>
<path d="M12.6106 13.2714C12.6106 14.09 12.419 14.7953 12.0358 15.3874C11.6701 15.9622 11.0605 16.4934 10.2072 16.981C9.63243 17.3293 8.96191 17.5906 8.19561 17.7647C7.42931 17.9389 6.6543 18.026 5.87059 18.026C5.06945 18.026 4.07675 17.7647 2.89246 17.2422C2.03908 16.8243 1.35986 16.3279 0.854798 15.7532C0.367152 15.1785 0.123329 14.5515 0.123329 13.8723C0.123329 13.402 0.227825 13.0624 0.436816 12.8534C0.645807 12.627 0.985418 12.5138 1.45565 12.5138C1.69947 12.5138 1.952 12.6183 2.21324 12.8273C2.47448 13.0189 2.63122 13.2105 2.68347 13.402C2.92729 14.1161 3.35398 14.6647 3.96354 15.0478C4.5731 15.4136 5.33069 15.5964 6.23632 15.5964C7.28128 15.5964 8.15207 15.4049 8.84871 15.0217C9.56276 14.6386 9.91979 14.1248 9.91979 13.4804C9.91979 12.8534 9.53664 12.2961 8.77034 11.8085C8.00404 11.3208 7.22032 10.9812 6.41919 10.7896C5.26974 10.4762 4.2509 10.1017 3.36269 9.66631C2.43965 9.2135 1.75172 8.65619 1.2989 7.99438C0.84609 7.33258 0.619683 6.63594 0.619683 5.90447C0.619683 5.22525 0.854798 4.53732 1.32503 3.84068C1.79526 3.12663 2.35257 2.61286 2.99696 2.29937C3.34528 2.12522 3.93742 1.94235 4.77338 1.75077C5.62676 1.54178 6.24503 1.43729 6.62818 1.43729C7.13324 1.43729 7.69055 1.49824 8.30011 1.62015C8.90967 1.74206 9.40602 1.91622 9.78917 2.14263C10.5555 2.57803 11.1215 2.96989 11.4872 3.31821C11.853 3.66652 12.0358 4.10192 12.0358 4.6244C12.0358 4.93789 11.9139 5.21654 11.6701 5.46037C11.4437 5.70419 11.0431 5.8261 10.4684 5.8261C10.3291 5.8261 10.1897 5.76515 10.0504 5.64323C9.91108 5.52132 9.73692 5.33845 9.52793 5.09463C9.24928 4.7289 8.97933 4.48507 8.71809 4.36316C8.45685 4.27608 8.0737 4.18029 7.56864 4.0758C7.08099 3.9713 6.64559 3.91906 6.26244 3.91906C5.84446 3.91906 5.40906 4.00614 4.95625 4.18029C4.50344 4.35445 4.12029 4.60699 3.8068 4.93789C3.51073 5.25137 3.36269 5.61711 3.36269 6.03509C3.36269 6.38341 3.51944 6.68819 3.83292 6.94943C4.16383 7.19325 4.55568 7.39353 5.0085 7.55028C5.53098 7.75927 6.09699 7.94214 6.70655 8.09888C7.50768 8.3427 8.16078 8.56911 8.66584 8.7781C9.18832 8.96968 9.69338 9.2135 10.181 9.50957C11.0344 10.0146 11.6527 10.5371 12.0358 11.077C12.419 11.5995 12.6106 12.331 12.6106 13.2714Z" fill="url(#paint0_linear_10503_11)"/>
<path d="M16.3861 1.22829C16.9956 1.28054 17.5268 1.44599 17.9796 1.72465C18.4324 1.98589 18.6588 2.38645 18.6588 2.92635C18.6588 3.32691 18.4673 3.64911 18.0841 3.89293C17.7184 4.11934 17.2743 4.23254 16.7518 4.23254C16.2467 4.23254 15.8984 4.10192 15.7068 3.84068C15.5153 3.57944 15.4195 3.3095 15.4195 3.03084C15.4195 2.50837 15.4717 2.07297 15.5762 1.72465C15.6981 1.37633 15.9681 1.21088 16.3861 1.22829ZM18.476 12.8012V13.5588C18.476 14.238 18.4934 14.8824 18.5282 15.4919C18.5805 16.0841 18.6414 16.6849 18.7111 17.2945C18.6937 17.4687 18.5631 17.6515 18.3192 17.8431C18.0754 18.0173 17.8577 18.1043 17.6661 18.1043C17.3352 18.1043 16.9956 18.0434 16.6473 17.9215C16.3164 17.7821 16.1161 17.6167 16.0465 17.4251C15.942 16.8678 15.8897 16.3714 15.8897 15.936C15.8897 14.5079 15.8462 12.9057 15.7591 11.1293C15.6894 9.56182 15.6546 8.46461 15.6546 7.83764C15.6546 7.52415 15.8113 7.25421 16.1248 7.0278C16.4383 6.80139 16.7692 6.68819 17.1175 6.68819C17.6226 6.68819 17.9709 6.80139 18.1625 7.0278C18.3715 7.25421 18.476 7.61123 18.476 8.09888V12.8012Z" fill="url(#paint1_linear_10503_11)"/>
<path d="M33.6503 15.9883C33.7374 16.0231 33.8767 16.0667 34.0683 16.1189C34.2598 16.1712 34.3992 16.2234 34.4862 16.2757C34.5733 16.3279 34.6169 16.4063 34.6169 16.5108C34.6343 16.9288 34.4775 17.2771 34.1466 17.5557C33.8332 17.817 33.4587 17.9476 33.0233 17.9476C32.3441 17.9476 31.8129 17.7647 31.4298 17.399C31.0466 17.0333 30.7679 16.4759 30.5938 15.7271C30.5241 15.431 30.4893 15.0217 30.4893 14.4992C30.4893 14.2032 30.5067 13.7242 30.5415 13.0624C30.5764 12.3658 30.5938 11.8085 30.5938 11.3905C30.5938 10.7809 30.4196 10.2497 30.0713 9.79693C29.7404 9.3267 29.2702 9.09159 28.6606 9.09159C28.2949 9.09159 27.9117 9.20479 27.5112 9.4312C27.1106 9.64019 26.832 9.90143 26.6752 10.2149C26.414 10.72 26.2311 11.2686 26.1266 11.8607C25.935 12.9057 25.8392 13.9942 25.8392 15.1262C25.8392 15.6661 25.848 16.0841 25.8654 16.3802C25.8654 16.4498 25.8654 16.5891 25.8654 16.7981C25.8828 16.9897 25.8654 17.1726 25.8131 17.3467C25.7783 17.5035 25.7086 17.6515 25.6041 17.7908C25.517 17.8779 25.3777 17.9476 25.1861 17.9998C25.012 18.0695 24.8465 18.1043 24.6898 18.1043C24.446 18.1043 24.1412 17.9998 23.7755 17.7908C23.4097 17.5819 23.2007 17.3467 23.1485 17.0855L23.1224 16.6414C23.1224 16.4846 23.1398 16.3018 23.1746 16.0928C23.3836 14.8737 23.4881 13.8113 23.4881 12.9057C23.4881 12.5051 23.4794 12.1916 23.462 11.9652L23.4358 10.7374C23.4358 10.3194 23.3313 9.91884 23.1224 9.53569C22.9134 9.13513 22.6695 8.93484 22.3909 8.93484C22.3038 8.93484 22.1819 8.96968 22.0252 9.03934C21.8684 9.09159 21.7378 9.11771 21.6333 9.11771C21.4591 9.11771 21.2676 9.03063 21.0586 8.85647C20.867 8.68231 20.7712 8.49945 20.7712 8.30787C20.7712 7.94214 20.8931 7.64607 21.1369 7.41966C21.3982 7.21067 21.6507 7.04521 21.8945 6.9233C22.1558 6.80139 22.4518 6.74044 22.7827 6.74044C23.0614 6.74044 23.2878 6.76656 23.462 6.81881C23.6361 6.87106 23.8712 6.98426 24.1673 7.15842C24.3241 7.2455 24.5069 7.43707 24.7159 7.73314C24.9249 8.02921 25.0991 8.4472 25.2384 8.98709C25.6912 8.15113 26.2485 7.56769 26.9103 7.23679C27.5895 6.88847 28.4516 6.71431 29.4966 6.71431C29.8972 6.71431 30.3238 6.84493 30.7767 7.10617C31.2469 7.36741 31.6475 7.67219 31.9784 8.02051C32.2918 8.40366 32.5531 8.8826 32.7621 9.45732C32.9711 10.0146 33.0756 10.5197 33.0756 10.9725C33.0756 11.2337 33.0581 11.6604 33.0233 12.2526C32.9711 12.7228 32.9449 13.2192 32.9449 13.7416C32.9449 14.9608 33.1801 15.7096 33.6503 15.9883Z" fill="url(#paint2_linear_10503_11)"/>
<path d="M46.4361 18.1043C45.844 18.1043 45.3911 18.0173 45.0777 17.8431C44.7642 17.6515 44.4246 17.3032 44.0588 16.7981C43.606 17.1987 42.9268 17.5209 42.0212 17.7647C41.1329 18.0085 40.3666 18.1305 39.7223 18.1305C38.6599 18.1305 37.7978 17.8431 37.136 17.2684C36.4916 16.6762 36.1694 15.8141 36.1694 14.6821C36.1694 14.1945 36.3 13.7503 36.5613 13.3498C36.8399 12.9318 37.1969 12.5661 37.6323 12.2526C38.12 11.9217 38.6947 11.6604 39.3565 11.4689C40.0357 11.2773 40.654 11.1815 41.2113 11.1815C42.1518 11.1815 42.9877 11.2686 43.7192 11.4427V11.4166C43.7192 10.4762 43.4841 9.83176 43.0139 9.48345C42.561 9.11771 41.8296 8.93484 40.8195 8.93484C40.1751 8.93484 39.6178 9.22221 39.1475 9.79693C38.9734 10.0233 38.6076 10.1365 38.0503 10.1365C37.7717 10.1365 37.5627 10.0233 37.4234 9.79693C37.3014 9.55311 37.2405 9.30929 37.2405 9.06546C37.2405 8.5604 37.4495 8.125 37.8675 7.75927C38.3029 7.39353 38.8253 7.12359 39.4349 6.94943C40.0444 6.75785 40.6105 6.66207 41.1329 6.66207C41.638 6.66207 42.2389 6.76656 42.9355 6.97555C43.6321 7.18454 44.1981 7.4632 44.6335 7.81152C45.156 8.26433 45.5566 8.79552 45.8352 9.40507C46.1313 9.99722 46.2794 10.6503 46.2794 11.3644C46.2794 11.5908 46.2619 11.9304 46.2271 12.3832C46.1923 12.9057 46.1749 13.3324 46.1749 13.6633C46.1749 13.82 46.1574 14.0203 46.1226 14.2641C46.0878 14.5776 46.0704 14.8388 46.0704 15.0478C46.0704 15.2742 46.14 15.4919 46.2794 15.7009C46.4187 15.9099 46.6103 16.0841 46.8541 16.2234C47.0805 16.3453 47.2285 16.4759 47.2982 16.6153C47.3678 16.7546 47.4027 16.9113 47.4027 17.0855C47.4027 17.2597 47.2895 17.4774 47.0631 17.7386C46.8541 17.9824 46.6451 18.1043 46.4361 18.1043ZM41.2113 13.1147C40.5321 13.1147 39.9312 13.2453 39.4088 13.5065C38.8863 13.7678 38.625 14.2293 38.625 14.8911C38.625 15.222 38.7383 15.5006 38.9647 15.7271C39.2085 15.9535 39.4697 16.0667 39.7484 16.0667C40.4973 16.0667 41.1242 15.9883 41.6293 15.8316C42.1344 15.6748 42.7439 15.3874 43.458 14.9695C43.545 14.6908 43.5973 14.2989 43.6147 13.7939C43.6147 13.6023 43.6234 13.4543 43.6408 13.3498C42.7004 13.193 41.8905 13.1147 41.2113 13.1147Z" fill="url(#paint3_linear_10503_11)"/>
<path d="M49.0795 9.19608C48.9402 9.19608 48.8183 9.14383 48.7138 9.03934C48.6093 8.91743 48.557 8.7781 48.557 8.62136C48.557 8.11629 48.7225 7.73315 49.0534 7.47191C49.3843 7.19325 49.7936 7.05392 50.2812 7.05392C50.9604 7.05392 51.5439 7.23679 52.0315 7.60253C52.5366 7.95084 52.7891 8.45591 52.7891 9.11771C52.7891 9.29187 52.7543 9.95368 52.6846 11.1031C52.6149 12.4267 52.5801 13.3062 52.5801 13.7416C52.5801 14.3512 52.6933 14.8476 52.9197 15.2307C53.1635 15.5964 53.538 15.7793 54.043 15.7793C55.0183 15.7793 55.7672 15.2394 56.2897 14.1596C56.8296 13.0624 57.1866 11.7214 57.3608 10.1365C57.4304 9.43991 57.5349 8.70844 57.6743 7.94214C57.7439 7.52415 57.8397 7.21937 57.9616 7.0278C58.0835 6.83622 58.3187 6.74044 58.667 6.74044C58.8934 6.74044 59.1546 6.79268 59.4507 6.89718C59.7642 7.00168 59.9645 7.141 60.0515 7.31516C60.156 7.5764 60.2083 7.86376 60.2083 8.17725C60.2083 8.61265 60.1473 9.17867 60.0254 9.8753C59.8861 10.5719 59.7903 11.3295 59.7381 12.1481C59.7032 12.8796 59.8164 13.6459 60.0777 14.447C60.3389 15.2481 60.7133 15.7706 61.201 16.0144C61.7583 16.2931 62.037 16.5456 62.037 16.772C62.037 17.1377 61.9063 17.4251 61.6451 17.6341C61.3839 17.8431 61.1313 17.9476 60.8875 17.9476C60.2431 17.9476 59.6597 17.7125 59.1372 17.2422C58.6321 16.772 58.2664 16.1886 58.04 15.4919C57.6743 16.0493 57.3172 16.5108 56.9689 16.8765C56.638 17.2248 56.2113 17.5209 55.6889 17.7647C55.1664 17.9911 54.522 18.1043 53.7557 18.1043C52.8501 18.1043 52.0228 17.7821 51.2739 17.1377C50.5424 16.4934 50.1767 15.3874 50.1767 13.82C50.1767 13.3846 50.1854 12.9231 50.2028 12.4354C50.2377 11.9478 50.2551 11.5995 50.2551 11.3905C50.3073 10.7635 50.3335 10.1888 50.3335 9.66631C50.3335 9.50957 50.2725 9.37895 50.1506 9.27445C50.0461 9.16996 49.9242 9.11771 49.7848 9.11771C49.6804 9.11771 49.5584 9.13513 49.4191 9.16996C49.2972 9.18738 49.184 9.19608 49.0795 9.19608Z" fill="url(#paint4_linear_10503_11)"/>
<path d="M75.9522 11.7823C76.0567 11.3992 76.1699 10.8767 76.2918 10.2149C76.466 9.4312 76.6053 8.83906 76.7098 8.43849C76.8143 8.03792 76.9536 7.69831 77.1278 7.41966C77.3194 7.10617 77.4848 6.89718 77.6241 6.79268C77.7809 6.68819 77.9463 6.63594 78.1205 6.63594C79.0261 6.63594 79.4789 6.98426 79.4789 7.6809C79.4789 8.02921 79.3396 8.68231 79.061 9.64019C78.1379 12.4267 77.4761 14.5863 77.0755 16.1189C76.9014 16.7633 76.6401 17.2597 76.2918 17.608C75.9435 17.9389 75.4733 18.1043 74.8811 18.1043C74.5851 18.1043 74.2803 17.965 73.9668 17.6863C73.6707 17.3903 73.4269 17.0333 73.2353 16.6153L72.948 15.9099C72.4603 14.6734 72.0946 13.7242 71.8508 13.0624C71.6244 12.3832 71.4763 11.7736 71.4067 11.2337L71.1715 12.0697C70.7536 13.5675 70.3182 14.9608 69.8653 16.2495C69.6389 16.9113 69.3603 17.3903 69.0294 17.6863C68.6985 17.965 68.2718 18.1043 67.7493 18.1043C67.4358 18.1043 67.1572 18.0347 66.9133 17.8953C66.6869 17.756 66.4692 17.5209 66.2603 17.19C65.9816 16.7372 65.7116 16.1276 65.4504 15.3613C65.2066 14.595 64.8496 13.402 64.3793 11.7823C64.1529 11.0857 63.9439 10.3542 63.7524 9.58794C63.5608 8.80422 63.465 8.25562 63.465 7.94214C63.465 7.5764 63.5608 7.28904 63.7524 7.08005C63.9439 6.87106 64.2226 6.76656 64.5883 6.76656C65.0585 6.76656 65.3895 6.86235 65.581 7.05392C65.7726 7.22808 65.9468 7.49803 66.1035 7.86377C66.1906 8.49074 66.3822 9.37895 66.6782 10.5284L67.253 12.984C67.2878 13.1756 67.3923 13.5762 67.5664 14.1857L67.7754 14.9433C68.1586 14.1248 68.4808 13.3411 68.742 12.5922C69.0033 11.8433 69.2906 10.9203 69.6041 9.82306C69.6215 9.75339 69.7957 9.15254 70.1266 8.02051C70.353 7.65477 70.5533 7.38483 70.7274 7.21067C70.9016 7.01909 71.0758 6.9233 71.2499 6.9233C71.5982 6.9233 71.8943 7.03651 72.1381 7.26291C72.3994 7.47191 72.5909 7.73315 72.7129 8.04663C72.9218 8.72585 73.1047 9.34412 73.2615 9.90143C73.3311 10.1278 73.4879 10.6764 73.7317 11.5472C73.9929 12.4006 74.228 13.1234 74.437 13.7155C74.646 14.3077 74.8202 14.7256 74.9595 14.9695L75.9522 11.7823Z" fill="url(#paint5_linear_10503_11)"/>
<path d="M19.3186 2.78755C19.3186 3.98987 18.3439 4.60171 17.1416 4.60171C15.9393 4.60171 15.3274 3.98987 15.3274 2.78755C15.3274 1.58523 15.9393 0.973389 17.1416 0.973389C18.3439 0.973389 19.3186 1.58523 19.3186 2.78755Z" fill="#F5443B"/>
<defs>
<linearGradient id="paint0_linear_10503_11" x1="40" y1="-11.0002" x2="40" y2="28.1856" gradientUnits="userSpaceOnUse">
<stop stop-color="#C7CAFE"/>
<stop offset="1" stop-color="#3D408F"/>
</linearGradient>
<linearGradient id="paint1_linear_10503_11" x1="40" y1="-11.0002" x2="40" y2="28.1856" gradientUnits="userSpaceOnUse">
<stop stop-color="#C7CAFE"/>
<stop offset="1" stop-color="#3D408F"/>
</linearGradient>
<linearGradient id="paint2_linear_10503_11" x1="40" y1="-11.0002" x2="40" y2="28.1856" gradientUnits="userSpaceOnUse">
<stop stop-color="#C7CAFE"/>
<stop offset="1" stop-color="#3D408F"/>
</linearGradient>
<linearGradient id="paint3_linear_10503_11" x1="40" y1="-11.0002" x2="40" y2="28.1856" gradientUnits="userSpaceOnUse">
<stop stop-color="#C7CAFE"/>
<stop offset="1" stop-color="#3D408F"/>
</linearGradient>
<linearGradient id="paint4_linear_10503_11" x1="40" y1="-11.0002" x2="40" y2="28.1856" gradientUnits="userSpaceOnUse">
<stop stop-color="#C7CAFE"/>
<stop offset="1" stop-color="#3D408F"/>
</linearGradient>
<linearGradient id="paint5_linear_10503_11" x1="40" y1="-11.0002" x2="40" y2="28.1856" gradientUnits="userSpaceOnUse">
<stop stop-color="#C7CAFE"/>
<stop offset="1" stop-color="#3D408F"/>
</linearGradient>
</defs>
</svg>
